<svg width="249" height="54" viewBox="0 0 249 54" fill="none" xmlns="http://www.w3.org/2000/svg">
<path fill-rule="evenodd" clip-rule="evenodd" d="M244.514 46.1341H243.917V47.525H244.479C244.994 47.525 245.313 47.3057 245.313 46.8295C245.313 46.3714 245.03 46.1341 244.514 46.1341ZM245.724 50.1792L244.36 48.1664H243.917V50.1072H243.133V45.4026H244.514C245.472 45.4026 246.109 45.8935 246.109 46.7739C246.109 47.4514 245.757 47.8899 245.188 48.0748L246.501 49.9959L245.724 50.1792ZM244.533 44.141C242.618 44.141 241.098 45.4926 241.098 47.9112C241.098 50.3052 242.618 51.6617 244.533 51.6617C246.466 51.6617 247.99 50.3052 247.99 47.9112C247.99 45.4926 246.45 44.141 244.533 44.141ZM244.533 52.1575C242.164 52.1575 240.513 50.4524 240.513 47.9112C240.513 45.383 242.194 43.6403 244.533 43.6403C246.909 43.6403 248.555 45.3634 248.555 47.9112C248.555 50.4394 246.871 52.1575 244.533 52.1575ZM36.7869 29.759H24.5548C25.3166 28.5055 36.7869 9.24063 36.7869 9.24063V29.759ZM31.5645 0.625172L0.547607 52.1543H11.0924C11.0924 52.1543 18.741 39.3268 19.0047 38.8883H36.8033L36.8099 52.1608L46.819 52.1592V0.623535H31.5645V0.625172ZM53.9188 0.623535V52.1608H63.6462V0.625172L53.9188 0.623535ZM70.7263 0.623535H80.4389V52.1608H70.7263V0.623535ZM101.846 27.8215C96.5551 26.3946 95.4494 25.5928 95.5886 23.3166C95.7033 21.2515 97.33 20.0635 100.048 20.0635C103.409 20.0635 107.519 21.2875 111.051 23.3363L111.608 23.6652L112.947 15.0661L112.63 14.9106C109.003 13.2006 104.662 12.2892 100.048 12.2892C95.6066 12.2892 91.8307 13.7063 89.3915 16.2721C87.4617 18.3192 86.4706 20.9684 86.5214 23.9123C86.6901 31.8584 90.3547 34.1068 99.0353 36.4124C104.775 37.8754 105.94 38.7443 105.899 41.5719C105.866 44.1148 104.399 45.0737 100.495 45.0737C96.4126 45.0737 91.8094 43.5192 87.8156 40.8208L87.2356 40.4232L85.8875 49.055L86.1774 49.2186C89.2866 50.9859 94.5992 52.8415 100.2 52.8415C105.629 52.8415 109.637 51.5128 112.118 48.9224C114.051 46.8901 115.001 44.1426 114.957 40.7324C114.83 32.1988 110.665 30.1714 101.846 27.8215ZM138.579 43.475L138.076 43.6141C137.408 43.8039 136.562 43.9004 135.407 43.9004C132.524 43.9004 131.184 42.557 131.184 39.6508V21.4054H138.317L138.448 13.0141H131.184V0.623535H121.617V13.0141H116.621V21.4037H121.617V41.171C121.617 48.9944 125.572 52.8219 133.725 52.8219C136.356 52.8219 137.968 52.5126 139.403 52.1903L139.839 52.1035L138.579 43.475ZM155.92 45.0737C153.527 45.0737 152.046 43.5568 152.046 41.1235C152.046 36.7888 156.091 33.9563 163.754 32.8926V41.3821C161.375 43.7826 158.674 45.0737 155.92 45.0737ZM159.28 12.2074C153.232 12.2074 148.665 13.7292 145.033 15.2019L144.689 15.341L145.936 23.6063L146.48 23.3592C150.839 21.3677 154.528 20.4383 158.122 20.4383C161.952 20.4383 163.754 22.0763 163.754 25.6043V26.6155C149.391 28.1423 142.397 33.2068 142.397 42.1021C142.397 48.6737 146.517 52.9152 152.908 52.9152C157.331 52.9152 161.004 51.2461 164.388 47.8457C164.571 48.9846 165.065 52.1559 165.065 52.1559H173.468V25.3359C173.468 16.3899 168.962 12.2074 159.28 12.2074ZM198.416 43.475L197.921 43.6141C197.256 43.8039 196.398 43.9004 195.262 43.9004C192.369 43.9004 191.013 42.557 191.013 39.6508V21.4054H198.16L198.291 13.0141H191.013V0.623535H181.43V13.0141H176.458V21.4037H181.43V41.171C181.43 48.9944 185.41 52.8219 193.568 52.8219C196.191 52.8219 197.878 52.4979 199.245 52.1903L199.671 52.1035L198.416 43.475ZM210.951 28.2895C211.388 22.6768 213.752 19.4515 217.487 19.4515C222.516 19.4515 223.85 24.1364 224.048 28.2895H210.951ZM231.765 40.4592C227.414 43.5781 223.856 44.9215 219.835 44.9215C214.612 44.9215 211.37 41.2692 210.813 34.9152H233.479L233.579 32.2381C233.579 18.9737 228.243 12.227 217.707 12.209C213.077 12.1943 209.282 13.6948 206.423 16.655C202.942 20.2304 201.101 25.7957 201.101 32.6946C201.101 45.1801 207.932 52.9152 218.878 52.9152C224.225 52.9152 229.076 51.3754 233.305 48.3661L233.544 48.2024L232.365 40.0206L231.765 40.4592Z" fill="#0033A0"/>
</svg>
