<svg width="221" height="65" viewBox="0 0 221 65" fill="none" xmlns="http://www.w3.org/2000/svg">
<path d="M76.0859 47.5471L76.6567 56.2736H76.8198C77.146 55.3765 77.3907 54.4794 77.88 53.5822L80.8973 47.5471H85.7903L86.4427 56.2736H86.6058C86.8505 55.458 87.1767 54.5609 87.5029 53.6638L90.4387 47.5471H97.0442L88.0737 62.1456H82.5283L82.039 54.2347H81.7944C81.5497 54.9687 81.3866 55.7027 81.0604 56.4367L78.2062 62.1456H72.8239L69.4803 47.5471H76.0859Z" fill="#005DAA"/>
<path d="M96.5549 47.5471H102.671L101.774 52.4405H105.689L106.586 47.5471H112.702L109.929 62.1456H103.813L104.791 57.0892H100.877L99.8985 62.1456H93.7822L96.5549 47.5471Z" fill="#005DAA"/>
<path d="M130.724 54.8872C129.827 59.5359 124.934 62.3903 119.634 62.3903C114.333 62.3903 110.5 59.6174 111.397 54.8872C112.294 50.3201 117.187 47.3025 122.488 47.3025C127.789 47.3025 131.54 50.2385 130.724 54.8872ZM117.758 54.9687C117.432 56.5999 118.573 57.7416 120.531 57.7416C122.488 57.7416 124.037 56.5999 124.363 54.9687C124.69 53.4192 123.629 52.1143 121.591 52.1143C119.552 52.1143 118.003 53.4192 117.758 54.9687Z" fill="#005DAA"/>
<path d="M132.111 47.5471H138.472L136.596 57.4154H141.978L141.081 62.0641H129.338L132.111 47.5471Z" fill="#005DAA"/>
<path d="M156.983 56.9261L157.228 57.1707C158.207 57.9047 159.511 58.4756 160.979 58.4756C161.632 58.4756 162.61 58.231 162.773 57.5785C162.937 56.9261 162.039 56.8445 161.55 56.763L160.327 56.5998C157.88 56.1921 156.086 55.0503 156.494 52.7667C157.146 49.3414 161.306 47.384 165.138 47.384C167.096 47.384 168.89 47.7918 170.439 48.6889L167.993 52.4405C167.014 51.7881 165.872 51.2987 164.486 51.2987C163.915 51.2987 163.1 51.4618 162.937 52.1143C162.855 52.6852 163.589 52.7667 164.078 52.8483L165.465 53.0929C168.074 53.5823 169.787 54.8056 169.297 57.2523C168.645 60.7592 164.486 62.4719 160.735 62.4719C158.533 62.4719 156.086 61.9825 154.292 61.167L156.983 56.9261Z" fill="#005DAA"/>
<path d="M178.839 56.8445L178.594 54.2347C178.512 53.5823 178.512 53.0114 178.512 52.3589H178.268L176.229 56.8445H178.839ZM173.293 62.1456H166.525L175.414 47.5471H182.427L185.934 62.1456H179.165L178.92 60.3514H174.109L173.293 62.1456Z" fill="#005DAA"/>
<path d="M188.135 47.5471H194.496L192.621 57.4154H197.921L197.024 62.0641H185.281L188.135 47.5471Z" fill="#005DAA"/>
<path d="M201.102 47.5471H212.845L212.111 51.5434H206.729L206.484 52.9298H211.377L210.643 56.7629H205.75L205.505 58.2309H211.051L210.317 62.2272H198.329L201.102 47.5471Z" fill="#005DAA"/>
<path d="M114.741 21.2861L122.814 20.9598L116.045 43.2246H130.48L137.248 21.0414L145.077 21.3676L148.258 10.8469H117.921L114.741 21.2861Z" fill="#E31837"/>
<path d="M84.8933 27.0766C82.8546 37.5158 71.8453 43.714 59.6944 43.714C47.625 43.714 38.9808 37.4342 41.0195 27.0766C42.9767 16.8822 54.149 10.2761 66.2184 10.2761C78.2062 10.1946 86.8505 16.8822 84.8933 27.0766ZM55.4538 27.2397C54.7199 30.9098 57.3295 33.5195 61.6516 33.5195C66.0553 33.5195 69.5619 30.9913 70.2959 27.2397C70.9483 23.8144 68.6649 20.8784 64.0981 20.8784C59.5313 20.8784 56.1878 23.8144 55.4538 27.2397Z" fill="#E31837"/>
<path d="M80.4081 40.778C84.4856 42.6538 90.1125 43.714 95.087 43.714C103.65 43.714 113.028 39.8809 114.496 32.1331C115.556 26.5873 111.642 23.9775 105.77 22.8357L102.59 22.2648C101.529 22.0202 99.7354 21.8571 99.98 20.6337C100.225 19.3288 102.182 18.9211 103.405 18.9211C106.504 18.9211 109.114 19.9813 111.315 21.3677L116.779 13.049C113.273 11.0917 109.277 10.1946 104.791 10.1946C96.1472 10.1946 86.769 14.517 85.3011 22.1833C84.3225 27.2398 88.5631 30.0126 94.0269 30.8282L96.7996 31.236C98.1044 31.4807 99.98 31.5622 99.6538 33.0302C99.4092 34.4982 97.0442 34.9876 95.5763 34.9876C92.2328 34.9876 89.3786 33.6827 87.1767 32.0515L86.5243 31.5622L80.4081 40.778Z" fill="#E31837"/>
<path d="M176.311 11.581C173.456 10.6839 170.113 10.2761 166.851 10.2761C155.189 10.2761 144.669 17.8608 142.794 27.3213C141 36.6187 148.421 43.7956 159.756 43.7956C162.366 43.7956 167.748 43.3878 170.276 42.4907L173.049 30.3389C170.358 32.2146 167.503 33.3564 164.241 33.3564C159.919 33.3564 156.739 30.5835 157.391 26.9951C158.043 23.4882 162.121 20.6337 166.443 20.6337C169.705 20.6337 172.315 22.1017 174.272 23.8959L176.311 11.581Z" fill="#E31837"/>
<path d="M199.389 10.1946C187.32 10.1946 176.148 16.8006 174.19 26.9951C172.152 37.4342 180.796 43.6325 192.865 43.6325C204.935 43.6325 216.025 37.3527 218.064 26.9951C220.021 16.8822 211.377 10.1946 199.389 10.1946ZM197.269 20.8784C201.836 20.8784 204.119 23.7329 203.467 27.2398C202.733 30.9098 199.226 33.5195 194.823 33.5195C190.419 33.5195 187.891 30.9913 188.625 27.2398C189.359 23.8144 192.702 20.8784 197.269 20.8784Z" fill="#E31837"/>
<path d="M44.6893 4.32252C41.1011 3.2623 37.0236 2.69141 32.9461 2.69141C18.4302 2.69141 5.30069 11.8257 3.0173 23.2435C0.815453 34.4166 10.1121 43.1431 24.2203 43.1431C27.4007 43.1431 34.2509 42.6538 37.3498 41.5935L40.7749 26.9135C37.4313 29.1155 33.8431 30.5835 29.7656 30.5835C24.3834 30.5835 20.3874 27.2397 21.2845 22.9173C22.1 18.6764 27.2376 15.251 32.6199 15.251C36.6974 15.251 39.9594 17.0452 42.4059 19.1657L44.6893 4.32252Z" fill="#E31837"/>
<path d="M209.175 41.6751C209.42 40.5333 210.643 39.6362 212.029 39.6362C213.416 39.6362 214.313 40.5333 214.068 41.6751C213.824 42.8169 212.6 43.714 211.214 43.714C209.909 43.714 208.931 42.8169 209.175 41.6751ZM213.497 41.6751C213.66 40.778 213.008 40.1256 211.948 40.1256C210.888 40.1256 209.991 40.6965 209.828 41.6751C209.665 42.5722 210.317 43.2247 211.377 43.2247C212.437 43.1431 213.253 42.5722 213.497 41.6751ZM212.6 42.7354H211.948L211.54 41.8382H211.132L210.969 42.7354H210.398L210.806 40.6149H212.029C212.6 40.6149 212.845 40.778 212.763 41.2673C212.682 41.6751 212.437 41.8382 212.111 41.8382L212.6 42.7354ZM211.785 41.4305C212.029 41.4305 212.274 41.4305 212.356 41.1858C212.356 41.0227 212.193 41.0227 211.866 41.0227H211.296L211.214 41.4305H211.785Z" fill="#E31837"/>
<path d="M3.99585 62.1456H71.4375L70.5405 58.394H3.99585V62.1456Z" fill="#005DAA"/>
<path d="M3.99585 56.8443H70.2143L69.3172 53.0928H3.99585V56.8443Z" fill="#005DAA"/>
<path d="M3.99585 51.5434H68.9095L68.6648 50.1569L68.094 47.5471H3.99585V51.5434Z" fill="#005DAA"/>
<path d="M144.995 47.5471H156.739L156.005 51.5434H150.622L150.378 52.9298H155.271L154.537 56.7629H149.644L149.399 58.2309H154.945L154.211 62.2272H142.223L144.995 47.5471Z" fill="#005DAA"/>
</svg>
