<svg width="391" height="102" viewBox="0 0 391 102" fill="none" xmlns="http://www.w3.org/2000/svg">
<g clip-path="url(#clip0_581_23)">
<path d="M33.3979 48.2075C33.3907 51.1463 34.3994 52.806 36.8546 53.6378C37.5308 53.867 38.3161 53.7917 39.0526 53.8168C39.8261 53.8433 40.6014 53.8228 41.464 53.8228C41.464 54.9521 41.5031 56.0109 41.4563 57.0659C41.344 59.5956 43.5494 61.781 45.7607 62.0577C48.5994 62.413 50.9822 60.6775 51.4062 57.9687C51.6122 56.6539 51.594 55.3039 51.682 53.8943H74.8686V61.7269C73.7039 61.7269 72.5502 61.7942 71.4071 61.7139C68.2969 61.4956 65.0385 64.8373 66.5984 68.7895C66.643 68.9032 66.6719 69.0232 66.7265 69.1996H4.50665C4.50665 62.2976 4.50665 55.4094 4.60515 48.432C6.13726 48.3425 7.57086 48.343 9.00447 48.3413C16.047 48.3325 23.0897 48.3231 30.2226 48.334C31.3414 48.3052 32.3697 48.2564 33.3981 48.2075H33.3979Z" fill="#C40E3D"/>
<path d="M33.4622 48.1761C32.3695 48.2566 31.3412 48.3054 30.2248 48.251C30.1408 38.4887 30.1445 28.8296 30.2143 19.1929C38.6623 24.1235 47.0442 29.0317 55.5355 34.0041V32.677L55.5537 2.10107C55.883 2.15358 56.2115 2.21154 56.5417 2.25727C59.5286 2.67224 62.527 3.01907 65.5006 3.51515C69.1413 4.12263 72.5988 5.39519 75.9945 6.8006C77.7158 7.5131 79.3466 8.44521 81.0276 9.42663C81.0259 12.5894 81.0149 15.6037 80.9635 18.6206C80.9233 18.6232 80.8443 18.639 80.8443 18.639C79.7272 18.5336 78.636 18.3832 77.5542 18.9715C75.8521 19.8969 75.0063 21.3153 74.8688 23.197C74.817 23.9061 74.8604 24.6222 74.8604 25.406C73.7347 25.406 72.6791 25.3853 71.6247 25.4103C69.2569 25.4658 67.2629 26.4518 66.461 28.9092C65.6098 31.5175 66.7638 34.1116 69.1631 35.1562C70.0823 35.5565 71.1631 35.6316 72.1823 35.7372C73.0722 35.8294 73.9791 35.7566 74.9037 35.7566V44.4057C74.3926 44.4057 73.8731 44.4057 73.236 44.3398C67.2862 40.8633 61.4538 37.4533 55.534 33.9919V44.3827H51.5955C51.5955 43.11 51.5931 41.8397 51.5959 40.5692C51.6015 38.1594 50.2236 36.1151 47.8759 35.5125C44.4977 34.6449 41.5819 36.7577 41.4715 40.1478C41.4267 41.5233 41.464 42.9015 41.464 44.4134C40.4409 44.4134 39.4201 44.4855 38.4128 44.3991C36.027 44.1943 34.0176 45.9402 33.4622 48.1761ZM117.647 27.0997C119.116 27.0997 120.493 27.067 121.866 27.1248C122.177 27.1379 122.595 27.3912 122.759 27.66C125.172 31.6065 127.565 35.5655 129.937 39.5368C132.156 43.2483 134.347 46.9764 136.551 50.6969C137.382 52.1001 138.214 53.5025 139.12 55.0295C139.871 53.7479 140.572 52.5435 141.281 51.3443C143.699 47.2589 146.133 43.1824 148.537 39.0889C150.742 35.3358 152.927 31.571 155.092 27.7945C155.372 27.3049 155.662 27.0787 156.237 27.0883C158.104 27.1191 159.972 27.0997 161.878 27.0997V69.0281H154.792V40.7342L140.781 64.1585H137.266L123.295 41.1469V69.0153H116.187V27.0997H117.647Z" fill="white"/>
<path d="M30.1483 19.1705C30.1445 28.8296 30.1408 38.4887 30.1346 48.2311C23.0894 48.3233 16.0468 48.3327 9.00425 48.3415C7.57065 48.3434 6.13705 48.3426 4.6177 48.3434C4.52095 40.9456 4.49518 33.547 4.5404 26.1486C4.54397 25.5818 4.97699 24.9288 5.38244 24.4682C7.35376 22.2291 9.25416 19.9018 11.4298 17.8757C13.6099 15.8451 16.086 14.1339 18.5226 12.3127C22.371 14.5496 26.2099 16.8027 30.0395 19.0718C30.0747 19.1362 30.1068 19.1599 30.1483 19.1705Z" fill="#FEC232"/>
<path d="M356.616 62.9131C355.079 60.7255 354.211 58.3658 354.042 55.7607C353.959 54.4604 353.795 53.1504 353.874 51.8576C354.084 48.4594 355.042 45.3062 357.236 42.6145C359.859 39.3972 363.215 37.5815 367.332 37.0519C371.151 36.5608 374.761 36.9629 378.023 39.1546C378.876 39.7277 379.625 40.4571 380.488 41.1696V24.6926H387.584V69.2169H380.68V65.12C373.753 72.8315 360.736 69.8015 356.616 62.9131ZM380.306 51.0931C380.037 50.1369 379.936 49.0879 379.471 48.2401C377.214 44.13 373.435 42.4043 368.749 43.2937C365.49 43.9121 363.231 45.8394 362.035 48.9263C361.338 50.7243 361.002 52.5734 361.311 54.5639C361.539 56.0292 361.815 57.4689 362.588 58.6914C364.811 62.2104 368.007 63.7816 372.197 63.2419C375.995 62.7526 378.504 60.6612 379.866 57.1463C380.602 55.2477 380.718 53.2664 380.306 51.0931Z" fill="white"/>
<path d="M30.2143 19.1926C30.1068 19.1597 30.0747 19.136 30.0821 19.0016C30.1209 14.8087 30.1312 10.7136 30.1335 6.61878C30.1335 6.47688 30.0513 6.33499 30.0074 6.19309C33.2086 4.78391 36.5653 3.85706 39.985 3.23339C42.6066 2.75539 45.275 2.48138 47.9348 2.2834C50.4073 2.09954 52.8959 2.13661 55.4655 2.08862C55.5477 12.293 55.5415 22.4849 55.5355 32.6768V34.0039C47.0442 29.0315 38.6623 24.1233 30.2143 19.1926Z" fill="#FEC232"/>
<path d="M174.173 44.6496C173.5 45.0708 172.885 45.45 172.199 45.873L169.323 40.537C170.127 40.0255 170.87 39.4461 171.698 39.0471C174.198 37.8436 176.833 37.073 179.611 36.894C181.281 36.7864 182.965 36.6202 184.627 36.7261C188.318 36.9614 191.75 37.9526 194.401 40.7723C195.885 42.3519 196.668 44.2922 196.972 46.3849C197.235 48.1827 197.344 50.0159 197.359 51.8346C197.406 57.5392 197.376 63.2446 197.376 69.008H190.484V65.1757C189.634 65.9608 188.896 66.7634 188.039 67.4057C186.502 68.5575 184.702 69.011 182.813 69.2764C180.647 69.5809 178.503 69.5364 176.394 69.05C172.384 68.1248 169.194 65.7756 168.537 61.6591C167.772 56.8781 169.578 52.8664 175.107 51.2227C176.666 50.7596 178.334 50.5247 179.962 50.4696C183.297 50.3563 186.639 50.4355 189.971 50.4355C190.328 46.3544 187.912 43.4275 183.955 42.8866C180.503 42.4148 177.311 43.1156 174.173 44.6496ZM190.059 56.1933V54.9649C186.37 55.1524 182.785 55.3052 179.204 55.5271C177.04 55.6611 175.787 57.5607 175.62 58.9747C175.345 61.3083 176.7 62.8886 178.573 63.608C181.034 64.5535 183.494 64.3252 185.86 63.3472C187.776 62.5558 189.289 61.2074 189.877 59.1383C190.123 58.2707 190.009 57.3002 190.059 56.1933ZM307.697 47.6036C307.759 48.4268 307.874 49.1635 307.876 49.9005C307.891 55.9516 307.884 62.0031 307.884 68.0544V69.021H300.963V65.0505C298.95 67.6961 296.389 68.9329 293.276 69.2811C290.489 69.5925 287.792 69.4695 285.142 68.5084C281.689 67.2559 278.893 64.1009 278.959 60.0215C279.002 57.3636 279.678 55.0692 281.695 53.2874C283.304 51.8649 285.237 51.062 287.34 50.8383C289.608 50.5966 291.897 50.5165 294.18 50.4487C296.269 50.3866 298.362 50.4355 300.447 50.4355C300.939 47.1128 299.202 44.0573 295.766 43.1649C291.284 42.0008 287.104 43.0484 283.246 45.5192C283.092 45.6184 282.972 45.7723 282.786 45.9475L279.791 40.4354C281.133 39.7485 282.424 38.992 283.789 38.4059C287.534 36.7975 291.509 36.451 295.501 36.7374C299.033 36.9907 302.37 37.9776 304.891 40.7512C306.295 42.2966 307.081 44.14 307.504 46.1579C307.598 46.6047 307.634 47.0639 307.697 47.6036ZM300.318 59.63L300.687 55.1403C298.686 55.1403 296.879 55.0914 295.076 55.1541C293.263 55.2171 291.428 55.2416 289.649 55.5538C287.28 55.9697 286.451 57.1596 286.152 59.2593C285.873 61.2161 287.159 62.9441 289.251 63.6675C290.919 64.2441 292.604 64.3275 294.308 63.9774C296.893 63.4466 299.025 62.2466 300.318 59.63ZM242.97 60.7317C243.096 60.6402 243.239 60.4889 243.338 60.3128C243.471 60.077 243.577 59.825 243.682 59.5747C245.449 55.3822 247.207 51.1862 248.98 46.9963C250.284 43.9145 251.615 40.8443 252.909 37.7584C253.138 37.2119 253.469 37.0526 254.039 37.0615C256.089 37.0933 258.14 37.0739 260.294 37.0739C259.239 39.5366 258.231 41.8845 257.226 44.2342C255.71 47.7817 254.201 51.3321 252.679 54.8772C251.634 57.3149 250.579 59.7484 249.514 62.1776C247.903 65.8503 246.285 69.5208 244.655 73.1851C243.857 74.9786 242.822 76.6063 241.456 78.0429C239.942 79.6361 238.071 80.5176 235.987 80.8972C232.658 81.5039 229.418 81.0956 226.368 79.5639C225.729 79.243 225.166 78.7684 224.514 78.328L227.3 73.1727C228.848 73.7858 230.223 74.4863 231.68 74.8743C234.59 75.6493 236.508 74.3067 237.896 72.123C237.927 72.0744 237.913 71.9939 237.948 71.9521C239.574 70.0167 238.919 68.183 237.972 66.1445C235.623 61.0881 233.471 55.9401 231.251 50.8242C229.284 46.291 227.331 41.7512 225.344 37.1481H232.99C236.304 44.959 239.636 52.81 242.97 60.7317ZM324.581 47.0688C323.688 48.6439 323.297 50.3032 323.285 52.016C323.243 57.6582 323.269 63.3009 323.269 69.005H316.013V37.1364H322.838V41.2474C323.652 40.5374 324.324 39.8889 325.058 39.3209C326.925 37.8766 329.074 37.177 331.401 36.868C333.997 36.5236 336.557 36.5778 339.048 37.3829C343.299 38.7569 345.894 41.7155 346.889 46.0548C347.147 47.1821 347.261 48.3658 347.268 49.5247C347.304 55.7025 347.285 61.8802 347.285 68.0582V69.0223H339.967V68.0958C339.967 62.2004 339.999 56.3043 339.945 50.4094C339.932 48.9259 339.534 47.515 338.708 46.1926C337.48 44.2282 335.643 43.3866 333.521 43.1292C331.913 42.9342 330.282 43.075 328.713 43.6493C326.944 44.2967 325.634 45.474 324.581 47.0688Z" fill="white"/>
<path d="M81.0038 18.6179C81.0149 15.6036 81.0259 12.5894 81.0556 9.48853C82.8203 10.4423 84.6211 11.4017 86.3012 12.5404C89.9201 14.993 93.1781 17.8898 96.1488 21.0953C97.3581 22.4 98.4367 23.8297 99.5256 25.2404C99.7849 25.5763 99.9797 26.0641 99.9815 26.4834C100.011 32.2821 100.001 38.0811 100 43.88C100 44.0306 99.9877 44.1808 99.9791 44.3708H84.4629V35.7565C85.483 35.7565 86.4935 35.8772 87.4611 35.7242C88.5326 35.5548 89.6666 35.3149 90.593 34.787C92.5449 33.6749 93.1434 31.7533 92.8364 29.6416C92.555 27.7059 91.3619 26.3596 89.475 25.7442C89.0167 25.5949 88.4962 25.6087 88.0035 25.6004C86.8512 25.5812 85.6984 25.5942 84.501 25.5942C84.4198 24.5448 84.3391 23.5361 84.2642 22.527C84.1374 20.8216 82.8781 19.2986 81.1141 18.756C81.0674 18.7189 81.0297 18.6718 81.0038 18.6179Z" fill="#C40E3D"/>
<path d="M267.362 69.0665H265.35V24.5205H272.557V69.0665H267.362ZM222.705 42.3216V43.6318C218.302 42.921 213.293 44.6902 212.03 50.1891C211.771 51.3155 211.662 52.4982 211.652 53.6566C211.61 58.734 211.629 63.812 211.624 68.8896C211.624 68.9155 211.599 68.9415 211.559 69.017H204.368V37.1309H211.209V41.6701C212.578 39.9212 214.217 38.6048 216.251 37.8014C218.287 36.9971 220.395 36.6109 222.705 36.7129V42.3216Z" fill="white"/>
<path d="M84.4138 56.2711V53.8784H99.948V69.2038H92.6972C92.6972 67.9798 92.8743 66.7155 92.6593 65.5222C92.2503 63.253 90.2886 61.7571 88.0002 61.7294C86.8471 61.7157 85.6934 61.727 84.4138 61.727V56.2713V56.2711ZM174.679 85.7952C175.407 84.8301 176.364 85.4431 177.346 85.1939V99.4937H174.692V90.5866L170.272 97.9723C168.563 98.5766 168.335 97.0491 167.741 96.1247C166.622 94.3824 165.582 92.5893 164.399 90.6351V99.499H161.777V85.3533C161.857 85.3142 161.907 85.2792 161.962 85.2637C164.338 84.6036 164.834 86.5453 165.693 87.9801C166.914 90.021 168.127 92.0665 169.348 94.1071C169.392 94.1801 169.489 94.2207 169.661 94.3536C171.338 91.5106 173.003 88.6896 174.679 85.7952ZM378.053 99.1344C377.875 99.3343 377.702 99.5289 377.52 99.5383C376.805 99.575 376.086 99.5533 375.305 99.5533V85.2519C375.958 85.2519 376.678 85.1058 377.294 85.2986C377.777 85.4497 378.177 85.9796 378.532 86.4102C380.424 88.7137 382.291 91.0378 384.164 93.3564C384.449 93.709 384.724 94.0702 385.157 94.6248V85.2995H387.956V99.4175C386.083 99.9 385.385 99.5462 383.919 97.6302C382.426 95.6792 380.852 93.7905 379.311 91.8764C378.953 91.4325 378.586 90.9963 378.054 90.3509C378.054 93.4309 378.054 96.2376 378.053 99.1344ZM198.827 87.5531C200.096 89.0884 201.361 90.6269 202.622 92.1687C203.218 92.8968 203.806 93.6308 204.467 94.4473V85.3223H207.255V99.5509C206.573 99.5509 205.805 99.724 205.18 99.4982C204.643 99.304 204.231 98.6867 203.834 98.1989C202.322 96.3415 200.843 94.4579 199.344 92.5908C198.751 91.8516 198.136 91.1295 197.409 90.2525V99.5018H194.608V85.4051C196.807 84.5567 197.788 86.0408 198.827 87.5531ZM85.9153 98.8034C84.9116 99.061 83.9866 99.4809 83.0462 99.5197C80.6143 99.6205 78.1756 99.5535 75.6752 99.5535V85.2509C77.7375 85.2509 79.8194 85.2713 81.9006 85.2436C83.2378 85.2259 84.511 85.4011 85.7382 85.9866C88.0807 87.1041 89.4544 88.8543 89.7024 91.504C89.8302 92.8703 89.7295 94.1658 89.2039 95.4253C88.5638 96.9599 87.4885 98.0824 85.9153 98.8034ZM86.6217 90.5568C86.1281 89.5462 85.4234 88.7673 84.3973 88.2447C82.477 87.2667 80.461 87.8965 78.4801 87.6707V97.3739C80.0513 97.2824 81.5612 97.1951 83.0708 97.1051C83.1937 97.0978 83.3209 97.0878 83.4372 97.051C86.4197 96.1053 87.3769 93.7209 86.6217 90.5566V90.5568ZM288.61 86.3218C290.64 87.4981 291.812 89.1665 291.925 91.4707C292.003 93.0415 292.034 94.6086 291.178 96.0586C289.945 98.1464 288.081 99.3316 285.765 99.5084C283.187 99.7052 280.583 99.5535 277.928 99.5535V85.2509C280.122 85.2509 282.329 85.266 284.536 85.2455C285.973 85.2323 287.316 85.5366 288.61 86.3216M284.733 97.1089C286.796 97.1306 288.502 95.7411 289.081 93.6023C289.637 91.552 288.589 89.2476 286.794 88.2991C284.835 87.2629 282.76 87.8715 280.733 87.6833V97.3748C282.05 97.2879 283.306 97.2049 284.733 97.1089ZM359.44 97.9142C357.818 96.4399 357.047 94.5593 357.089 92.5375C357.162 89.0434 358.719 86.2943 362.727 85.2927C365.68 84.555 368.516 85.0661 370.693 87.4054C372.564 89.4153 373.036 91.855 372.307 94.5021C371.566 97.1906 369.796 98.88 367.123 99.5411C364.352 100.226 361.758 99.8258 359.44 97.9142ZM365.999 97.2452C366.078 97.2023 366.153 97.146 366.237 97.1183C368.819 96.2656 369.851 94.4328 369.748 92.3004C369.587 88.9587 366.775 86.8391 363.48 87.7251C361.76 88.1879 360.488 89.3646 360.125 91.1481C359.786 92.8187 360.016 94.4622 361.275 95.8145C362.536 97.1686 364.128 97.395 365.999 97.2452ZM228.15 89.9996C229.897 84.6489 236.985 83.7081 240.615 86.7345C242.295 88.1339 243.106 89.8631 243.181 92.0609C243.257 94.3199 242.69 96.2848 241.018 97.8146C239.679 99.0401 238.097 99.6785 236.221 99.7807C234.231 99.8891 232.425 99.5761 230.798 98.4246C228.579 96.855 227.262 94.0711 227.94 91.1547C228.023 90.799 228.077 90.4366 228.15 89.9996ZM240.093 94.2497C240.824 91.6513 240.067 89.5156 238.287 88.3823C236.38 87.1684 234.564 87.1713 232.563 88.4924C231.308 89.321 230.279 91.5473 230.73 93.4597C231.206 95.4816 232.963 97.0741 234.704 97.276C237.093 97.553 239.068 96.5831 240.093 94.2499V94.2497ZM146.903 89.2969C146.936 90.8344 147.056 92.3215 145.964 93.4988C145.456 94.0465 144.854 94.5072 144.195 95.0968L147.267 99.5535C146.304 99.5535 145.436 99.6011 144.579 99.5277C144.279 99.502 143.921 99.2394 143.733 98.9801C143.002 97.968 142.346 96.9013 141.619 95.8853C141.461 95.6642 141.136 95.4479 140.877 95.4349C139.856 95.3836 138.83 95.4139 137.721 95.4139V99.5108H134.97V85.2509C135.528 85.2509 136.137 85.237 136.746 85.2536C138.698 85.3063 140.659 85.2743 142.601 85.4551C144.867 85.6665 146.341 86.9531 146.903 89.2969ZM140.766 93.155C141.155 93.0929 141.547 93.0496 141.93 92.9657C143.268 92.6734 144.043 91.8606 144.092 90.7189C144.158 89.1905 143.599 88.1728 142.178 87.9107C140.746 87.6466 139.254 87.7072 137.76 87.624V93.155H140.766ZM97.7513 93.5314H95.1789V97.2839H103.147V99.4824H92.3755V85.3127H102.947V87.6845H95.1684V91.0286H101.998V93.5314H97.7513ZM62.8527 93.5314H59.3431V97.2847H67.3121V99.4828H56.5397V85.3123H66.9244V87.6852H59.3326V91.0292H66.1633V93.5314H62.8527ZM268.867 91.0849H273.872V93.5257H267.212V97.2463H275.175V99.4965H264.409V85.2984H274.821V87.647H267.235V91.0849H268.867ZM181.055 99.1346C181.053 94.4742 181.053 89.9047 181.053 85.2931H191.49V87.6583H183.926V91.0691H190.576V93.5058H183.935V97.26H191.879V99.5535H187.778C185.777 99.5535 183.776 99.5646 181.775 99.539C181.534 99.5358 181.295 99.3345 181.054 99.1344L181.055 99.1346Z" fill="#C40E3D"/>
<path d="M55.6211 44.3949C55.534 40.9723 55.534 37.5621 55.534 33.9917C61.4538 37.4531 67.2861 40.8631 73.15 44.3279C67.3571 44.3906 61.5326 44.3989 55.6211 44.3949Z" fill="#FDC132"/>
<path d="M107.864 99.5536H106.056V85.0795C108.945 85.2619 111.836 85.2391 114.652 85.6893C116.761 86.0263 117.915 88.0071 118.036 90.0585C118.183 92.5427 116.499 94.7009 114.697 95.0789C113.717 95.2846 112.73 95.4916 111.735 95.5833C110.809 95.6685 109.87 95.6015 108.849 95.6015V99.5048C108.495 99.5242 108.225 99.5387 107.864 99.5536ZM108.82 90.0518V93.3304C110.504 93.1359 112.066 93.0382 113.591 92.7489C114.544 92.5681 115.239 91.3066 115.199 90.2575C115.159 89.2228 114.36 88.0167 113.454 87.9126C111.937 87.7387 110.403 87.711 108.82 87.6184V90.0518ZM130.958 94.2738C131.74 96.0278 132.512 97.7091 133.332 99.4958H130.309L128.96 96.3543C126.817 96.3543 124.692 96.3349 122.57 96.3788C122.301 96.3842 122.027 96.7068 121.782 96.9142C121.707 96.9772 121.739 97.1532 121.693 97.2653C120.695 99.7053 120.695 99.7051 117.762 99.4971C118.109 98.6649 118.421 97.8677 118.77 97.0869C120.421 93.3886 122.088 89.6972 123.733 85.996C123.966 85.471 124.237 85.2578 124.875 85.2152C126.287 85.1211 127.179 85.3701 127.737 86.9366C128.623 89.4241 129.859 91.7863 130.958 94.2738ZM127.941 93.9007L125.467 88.3311L123.043 94.0522C124.722 94.0522 126.306 94.0522 127.941 93.9007ZM333.963 89.1989C335.519 92.6776 337.064 96.0843 338.638 99.5536C337.921 99.5536 337.286 99.4693 336.683 99.5733C335.768 99.7308 335.398 99.225 335.125 98.5168C334.906 97.9506 334.742 97.3585 334.472 96.8193C334.365 96.6067 334.038 96.378 333.808 96.3743C331.654 96.3408 329.5 96.3545 327.332 96.3545L325.967 99.5306H322.994L329.388 85.2666H332.187C332.769 86.5395 333.361 87.8332 333.963 89.1989ZM331.964 94.096H333.283L330.768 88.3074L328.298 94.096H331.964ZM37.0217 85.2849C37.782 86.874 38.4542 88.4408 39.1505 89.9966C40.5533 93.1306 41.9691 96.2585 43.4534 99.553C42.453 99.553 41.5982 99.5696 40.7451 99.5381C40.5863 99.5323 40.4079 99.3563 40.2884 99.2163C40.1985 99.1109 40.194 98.9352 40.1428 98.7938C39.2576 96.3541 39.2576 96.3543 36.6568 96.3543C35.3452 96.3543 34.032 96.3246 32.7226 96.3782C32.4431 96.3895 32.0648 96.6417 31.9252 96.8914C31.6016 97.4712 31.353 98.1041 31.1552 98.7408C30.9733 99.3281 30.6928 99.6179 30.0376 99.5664C29.3241 99.5099 28.6027 99.5536 27.8165 99.5536C28.459 98.0981 29.0798 96.6825 29.7078 95.2699C31.0179 92.3229 32.3541 89.3871 33.6301 86.4251C33.9975 85.5726 34.4307 85.0511 35.4482 85.2363C35.9324 85.3244 36.445 85.2555 37.0217 85.2849ZM33.6754 92.7811L33.174 94.0727H38.0863L35.5947 88.2545C34.9213 89.8713 34.3408 91.2652 33.6754 92.7811ZM294.563 93.7036V85.3035H297.378C297.378 88.1633 297.364 91.0051 297.383 93.8467C297.394 95.4986 298.149 96.7166 299.619 97.1142C302.263 97.8294 304.207 96.5707 304.299 93.7539C304.391 90.9688 304.32 88.1785 304.32 85.3208H307.076C307.093 85.5194 307.131 85.7568 307.131 85.9945C307.135 88.6271 307.189 91.2611 307.116 93.8916C307.058 96.0163 306.344 97.9001 304.373 98.986C303.653 99.3831 302.792 99.5788 301.971 99.7233C300.646 99.9567 299.312 99.8818 298.04 99.3831C295.505 98.3889 294.546 96.3946 294.563 93.7036ZM13.3169 95.9168C13.3752 94.9303 12.7852 94.52 12.0482 94.2883C10.5745 93.8252 9.07031 93.4548 7.61081 92.9522C6.26014 92.4872 5.29239 91.7246 5.0089 90.0981C4.60627 87.7897 5.99578 86.201 7.4095 85.6484C10.1925 84.5611 12.9167 84.8761 15.6417 86.2988L14.8047 88.3345C13.43 88.0187 12.1777 87.5945 10.8985 87.4863C10.0902 87.418 9.18269 87.699 8.4369 88.0643C8.06035 88.2487 7.6656 89.0534 7.77836 89.4253C7.93071 89.9276 8.49338 90.4705 9.00464 90.6636C10.1617 91.1006 11.4034 91.3061 12.5955 91.657C14.0102 92.0737 15.3954 92.5696 15.944 94.1594C16.704 96.362 15.5575 98.6947 13.306 99.3626C10.5467 100.181 7.86279 100.001 5.29164 98.5823C4.68563 98.2479 4.58394 97.9076 4.87888 97.3401C5.11434 96.8869 5.32504 96.4211 5.49559 96.0669C6.84889 96.5321 8.11251 97.0183 9.40709 97.398C10.9431 97.8486 12.6773 97.184 13.3169 95.917V95.9168ZM322.188 88.3119C321.89 88.6565 321.594 89.0027 321.3 89.3504C320.002 87.9739 318.497 87.3407 316.765 87.5379C315.464 87.6862 314.309 88.2818 313.471 89.3476C311.974 91.2489 312.019 94.4013 314.187 96.194C315.831 97.5533 318.879 98.0478 321.194 95.556C321.754 96.2167 322.313 96.8771 322.891 97.5602C320.497 100.61 314.958 100.408 312.34 98.2759C308.55 95.1879 309.083 90.0892 311.349 87.5057C314.266 84.1796 320.317 84.2398 323.15 87.5223C322.852 87.7637 322.543 88.014 322.188 88.3119Z" fill="#C40E3D"/>
<path d="M29.9355 6.20166C30.0513 6.33509 30.1335 6.47699 30.1335 6.61888C30.1312 10.7139 30.1209 14.809 30.0693 18.9739C26.2221 16.81 22.4174 14.5762 18.5806 12.2853C22.0615 9.73289 25.854 7.76591 29.9355 6.20166Z" fill="white"/>
<path d="M252.161 87.6975H248.653V91.8194H255.49V94.2823H248.625V99.4834H245.847V85.3167H256.412V87.6975H252.161ZM50.0112 99.4711C49.1048 99.5344 48.2622 99.5344 47.3343 99.5344V87.7434H42.4638V85.3074H54.7318V87.6899H50.0752C50.0752 91.654 50.0752 95.5311 50.0114 99.4713L50.0112 99.4711ZM155.162 88.4792V99.5048H152.348V87.7233H147.725V85.3136H159.792V87.6975C158.467 87.6975 157.134 87.7257 155.803 87.6843C155.236 87.6666 155.089 87.8904 155.162 88.4792ZM346 87.6975C345.293 87.5793 345.207 87.8947 345.21 88.4348C345.231 92.0987 345.221 95.7628 345.221 99.4901H342.436V87.7195H337.766V85.2954H349.87V87.6975H346ZM214.074 85.251H221.335V87.6817H216.71V99.5091H213.946V87.7494H209.261V85.251H214.074ZM21.1904 87.935C20.0752 87.7957 18.9686 87.7419 17.8614 87.6999C17.4573 87.6847 17.0522 87.6975 16.579 87.6975V85.3138H28.646V87.6766H24.0283V99.5073H21.199C21.199 95.655 21.199 91.8399 21.1904 87.935ZM352.556 99.5536C352.195 99.5391 351.925 99.5246 351.629 99.5088V85.3172H354.353V99.5536H352.556Z" fill="#C40E3D"/>
<path d="M80.9636 18.6204C81.0038 18.6176 81.0398 18.6995 81.0439 18.7441C80.9903 18.7708 80.9327 18.7531 80.8597 18.6871C80.8443 18.6389 80.9235 18.6231 80.9634 18.6204H80.9636Z" fill="#31040F"/>
</g>
<defs>
<clipPath id="clip0_581_23">
<rect width="391" height="102" fill="white"/>
</clipPath>
</defs>
</svg>
